<?xml version="1.0" encoding="UTF-8"?>
<svg width="200px" height="200px" viewBox="0 0 200 200" version="1.1" xmlns="http://www.w3.org/2000/svg" xmlns:xlink="http://www.w3.org/1999/xlink">
    <title>argon</title>
    <g id="Page-1" stroke="none" stroke-width="1" fill="none" fill-rule="evenodd">
        <g id="jiawifi-icon">
            <g id="Group-2">
                <rect id="Rectangle" fill="#111111" x="0" y="0" width="200" height="200"></rect>
                <g id="家" transform="translate(57.700000, 51.900000)" fill="#FFFFFF" fill-rule="nonzero">
                    <path d="M6.8,35.7 C6.06666667,35.7 5.31666667,35.45 4.55,34.95 C3.78333333,34.45 3.1,33.8666667 2.5,33.2 C1.9,32.5333333 1.6,31.9666667 1.6,31.5 C1.6,31.1 2.1,30.1 3.1,28.5 C4.1,26.9 5.23333333,24.45 6.5,21.15 C7.76666667,17.85 8.86666667,14.3666667 9.8,10.7 C10.3333333,9.1 11.3333333,8.3 12.8,8.3 C13.4,8.3 14.3,8.51666667 15.5,8.95 C16.7,9.38333333 17.3,10.1666667 17.3,11.3 C17.3,12.3 17.1,13.3666667 16.7,14.5 L38.3,13.2 L38.2,6.5 C38.2,5.1 37.85,4.01666667 37.15,3.25 C36.45,2.48333333 36.1,1.86666667 36.1,1.4 C36.1,0.466666667 36.8,-2.84217094e-14 38.2,-2.84217094e-14 C39.2,-2.84217094e-14 40.3,0.166666667 41.5,0.5 C44.7666667,1.3 46.4,2.43333333 46.4,3.9 L46.3,12.8 L79.3,10.8 C80.1666667,10.8 81.2333333,11.25 82.5,12.15 C83.7666667,13.05 84.4,13.9666667 84.4,14.9 C84.4,15.9 84.1166667,16.6166667 83.55,17.05 C82.9833333,17.4833333 82.5666667,17.9 82.3,18.3 C78.9666667,23.4333333 76.1,27.0666667 73.7,29.2 C71.3,31.3333333 69.7,32.4 68.9,32.4 C67.8333333,32.4 67.3,32 67.3,31.2 C67.3,30.3333333 68.0333333,28.8333333 69.5,26.7 C70.9666667,24.5666667 72.5,21.6666667 74.1,18 L14.6,21.2 C11.3333333,30.8666667 8.73333333,35.7 6.8,35.7 Z M43.1,93.2 C40.5666667,93.2 37.1666667,91.2333333 32.9,87.3 C28.5666667,83.5666667 26.4,80.6333333 26.4,78.5 C26.4,77.7 26.9,77.3 27.9,77.3 C28.5666667,77.3 30.1166667,78.1333333 32.55,79.8 C34.9833333,81.4666667 37.1333333,82.6666667 39,83.4 L41.9,84.5 C42.7,84.5 43.3666667,82.4666667 43.9,78.4 C44.1666667,76.5333333 44.3,74.2666667 44.3,71.6 C44.3,69 44.0666667,66.3666667 43.6,63.7 C29.8,73.8333333 17.1333333,80.2333333 5.6,82.9 C3.46666667,83.3666667 2.1,83.6 1.5,83.6 C0.5,83.6 0,83.1666667 0,82.3 C0,81.1666667 1.58333333,79.85 4.75,78.35 C7.91666667,76.85 11.4666667,75.0666667 15.4,73 C24.4,68.3333333 33.2,62.6 41.8,55.8 L40,51 C30.3333333,58.1333333 20.2,63.0666667 9.6,65.8 C7.46666667,66.3333333 6.03333333,66.6 5.3,66.6 C4.16666667,66.6 3.6,66.1333333 3.6,65.2 C3.6,64.0666667 4.86666667,62.9666667 7.4,61.9 C19.0666667,56.6333333 28.8,50.8333333 36.6,44.5 C36.1333333,43.9 35.2,42.9333333 33.8,41.6 C27.3333333,45.4666667 20.0666667,48.3333333 12,50.2 C11,50.4 10.0666667,50.5 9.2,50.5 C8,50.5 7.4,50.0666667 7.4,49.2 C7.4,48.1333333 8.95,46.9833333 12.05,45.75 C15.15,44.5166667 18.7333333,42.9 22.8,40.9 C26.8666667,38.9 30.5,36.6 33.7,34 L21.1,34.8 C18.8333333,34.8 17.25,34.4833333 16.35,33.85 C15.45,33.2166667 14.7166667,32.3 14.15,31.1 C13.5833333,29.9 13.3,29.0666667 13.3,28.6 C13.3,27.8 13.7666667,27.4 14.7,27.4 C14.9666667,27.4 15.5666667,27.5166667 16.5,27.75 C17.4333333,27.9833333 18.8333333,28.1 20.7,28.1 C21.7,28.1 33.0333333,27.5 54.7,26.3 C56.7,26.2333333 58.3,25.9833333 59.5,25.55 C60.7,25.1166667 61.6666667,24.9 62.4,24.9 C63.2,24.9 64.0166667,25.2666667 64.85,26 C65.6833333,26.7333333 66.3166667,27.4833333 66.75,28.25 C67.1833333,29.0166667 67.4,29.5666667 67.4,29.9 C67.4,31.1666667 66.1333333,31.9333333 63.6,32.2 L45.4,33.3 C42.8666667,35.6333333 40.9666667,37.2333333 39.7,38.1 C42.9666667,40.9666667 45.4,44.5666667 47,48.9 C57.2,44.7 63.0333333,40.6666667 64.5,36.8 C64.9666667,35.6666667 65.6,35.1 66.4,35.1 C67.0666667,35.1 67.7333333,35.5 68.4,36.3 C69.8666667,38.1666667 70.6,40.0666667 70.6,42 C70.6,42.9333333 70.3333333,43.5666667 69.8,43.9 C62.6,48.7666667 55.8666667,52.3666667 49.6,54.7 C57.9333333,60.7 66.0333333,65.3666667 73.9,68.7 C78.1666667,70.5666667 82.8666667,72.3333333 88,74 C89.3333333,74.4666667 90,75.0666667 90,75.8 C90,76.4666667 89.6,77.2166667 88.8,78.05 C88,78.8833333 87.1333333,79.6 86.2,80.2 C85.2666667,80.8 84.6333333,81.1 84.3,81.1 C83.9666667,81.1 82.7,80.7 80.5,79.9 C68.8333333,75.5 59.0666667,70.1333333 51.2,63.8 C51.8666667,67.0666667 52.2,70.3333333 52.2,73.6 C52.2,76.8666667 51.8666667,80.05 51.2,83.15 C50.5333333,86.25 49.3833333,88.7 47.75,90.5 C46.1166667,92.3 44.5666667,93.2 43.1,93.2 Z" id="Shape"></path>
                </g>
                <path d="M134.894961,59.0059546 C140.781397,52.028253 149.382484,48.0265378 158.49205,48.0265378 C167.603273,48.0265378 176.20436,52.0299683 182.089139,59.0076698 C182.415427,59.3970352 182.875875,59.596006 183.336322,59.596006 C183.722236,59.596006 184.111463,59.4570695 184.424501,59.1723354 C185.113515,58.5496939 185.184736,57.4673611 184.583504,56.7538105 C178.069336,49.0265378 168.560605,44.596006 158.49205,44.596006 C148.425152,44.596006 138.916421,49.0248225 132.400597,56.7486647 C131.799365,57.4622153 131.868929,58.5462633 132.557944,59.1689048 C133.246958,59.7932616 134.29373,59.7195052 134.894961,59.0059546 Z" id="Path" fill="#FFFFFF" fill-rule="nonzero" transform="translate(158.491691, 52.096006) rotate(57.000000) translate(-158.491691, -52.096006) "></path>
                <path d="M168.94075,61.1399026 C169.272417,61.5492232 169.757291,61.7614635 170.247216,61.7614635 C170.620972,61.7614635 170.994729,61.6384989 171.307877,61.3824629 C172.030137,60.794591 172.137887,59.7333894 171.551997,59.0141306 C166.770603,53.1337263 159.617032,49.7614635 151.929762,49.7614635 C144.244176,49.7614635 137.092288,53.1337263 132.307527,59.0107617 C131.719954,59.7333894 131.829388,60.794591 132.549964,61.3807785 C133.273907,61.9720194 134.336252,61.857477 134.918774,61.1382181 C139.060404,56.0495039 145.262748,53.1286729 151.929762,53.1286729 C158.600144,53.1303574 164.800804,56.0495039 168.94075,61.1399026 Z" id="Path" fill="#FFFFFF" fill-rule="nonzero" transform="translate(151.929342, 55.761464) rotate(57.000000) translate(-151.929342, -55.761464) "></path>
                <path d="M155.422399,64.2106992 C155.955263,64.9483507 157.009186,65.1274714 157.771384,64.6145349 C158.535268,64.0999701 158.720758,63.0854957 158.189581,62.3462158 C155.334713,58.3957906 150.60639,56.0379111 145.539126,56.0379111 C140.39598,56.0379111 135.628873,58.4511551 132.784123,62.492769 C132.25969,63.2369341 132.462044,64.2497801 133.230986,64.7562031 C133.522712,64.9467224 133.851536,65.0379111 134.178674,65.0379111 C134.718283,65.0379111 135.249461,64.7887705 135.574912,64.3246851 C137.790681,61.1737895 141.515668,59.2946507 145.540813,59.2946507 C149.503565,59.2946507 153.199885,61.1330802 155.422399,64.2106992 Z" id="Path" fill="#FFFFFF" fill-rule="nonzero" transform="translate(145.492297, 60.537911) rotate(57.000000) translate(-145.492297, -60.537911) "></path>
            </g>
            <g id="Group" transform="translate(153.250000, 55.500000) rotate(57.000000) translate(-153.250000, -55.500000) translate(126.750000, 41.750000)"></g>
        </g>
    </g>
</svg>